<svg xmlns="http://www.w3.org/2000/svg" viewBox="0 0 840 520" role="img" aria-labelledby="title desc">
  <title id="title">Central America research map</title>
  <desc id="desc">Stylized map panel for a FRUS Central America compiler workspace.</desc>
  <defs>
    <linearGradient id="sea" x1="0" x2="1" y1="0" y2="1">
      <stop offset="0" stop-color="#d7ebe9"/>
      <stop offset="1" stop-color="#b8d6d0"/>
    </linearGradient>
    <filter id="shadow" x="-20%" y="-20%" width="140%" height="140%">
      <feDropShadow dx="0" dy="16" stdDeviation="16" flood-color="#10231f" flood-opacity="0.18"/>
    </filter>
  </defs>
  <rect width="840" height="520" fill="url(#sea)"/>
  <path d="M0 360 C120 330 196 380 304 352 C432 320 504 268 630 286 C738 302 780 270 840 246 L840 520 L0 520 Z" fill="#8ab6a1" opacity="0.38"/>
  <path d="M64 352 C126 302 210 286 286 306 C356 324 410 306 470 272 C546 230 620 224 704 240 C752 250 792 244 830 226 L840 520 L0 520 L0 392 C20 382 42 370 64 352 Z" fill="#f2f0dc"/>
  <path d="M154 272 C206 252 248 260 286 288 L324 318 L378 324 L426 306 L486 276 L554 270 L612 282 L666 278 L728 248 L786 230" fill="none" stroke="#2f6b4f" stroke-width="22" stroke-linecap="round" stroke-linejoin="round" opacity="0.86"/>
  <path d="M154 272 C206 252 248 260 286 288 L324 318 L378 324 L426 306 L486 276 L554 270 L612 282 L666 278 L728 248 L786 230" fill="none" stroke="#f7f8f3" stroke-width="5" stroke-linecap="round" stroke-linejoin="round" opacity="0.9"/>
  <g filter="url(#shadow)">
    <rect x="52" y="44" width="310" height="120" rx="8" fill="#ffffff" stroke="#ccd8d0"/>
    <text x="78" y="86" fill="#c64f3d" font-family="Arial, sans-serif" font-size="16" font-weight="800">FRUS 1993-2000</text>
    <text x="78" y="120" fill="#10231f" font-family="Arial, sans-serif" font-size="30" font-weight="900">Volume XXXII</text>
    <text x="78" y="146" fill="#586761" font-family="Arial, sans-serif" font-size="17">Central America research lanes</text>
  </g>
  <g fill="#10231f" font-family="Arial, sans-serif" font-weight="800" font-size="15">
    <circle cx="222" cy="264" r="8" fill="#d9a134"/>
    <text x="176" y="238">Guatemala</text>
    <circle cx="308" cy="309" r="8" fill="#d9a134"/>
    <text x="300" y="352">El Salvador</text>
    <circle cx="390" cy="322" r="8" fill="#d9a134"/>
    <text x="376" y="362">Honduras</text>
    <circle cx="488" cy="277" r="8" fill="#d9a134"/>
    <text x="472" y="240">Nicaragua</text>
    <circle cx="594" cy="281" r="8" fill="#d9a134"/>
    <text x="570" y="324">Costa Rica</text>
    <circle cx="706" cy="256" r="8" fill="#d9a134"/>
    <text x="684" y="218">Panama</text>
    <circle cx="174" cy="278" r="7" fill="#24747d"/>
    <text x="114" y="314">Belize</text>
  </g>
  <g stroke="#24747d" stroke-width="2" opacity="0.78">
    <path d="M222 264 L190 244"/>
    <path d="M308 309 L296 340"/>
    <path d="M390 322 L394 350"/>
    <path d="M488 277 L496 248"/>
    <path d="M594 281 L604 312"/>
    <path d="M706 256 L720 226"/>
    <path d="M174 278 L142 304"/>
  </g>
  <g>
    <rect x="524" y="48" width="258" height="106" rx="8" fill="#10231f" opacity="0.94"/>
    <text x="548" y="82" fill="#f2c767" font-family="Arial, sans-serif" font-size="15" font-weight="800">Compiler control</text>
    <text x="548" y="112" fill="#ffffff" font-family="Arial, sans-serif" font-size="18" font-weight="900">Peace, rights, aid, migration</text>
    <text x="548" y="138" fill="#dbe9e1" font-family="Arial, sans-serif" font-size="15">Search lanes before selection calls</text>
  </g>
  <g fill="none" stroke="#c64f3d" stroke-width="3" stroke-dasharray="8 10" opacity="0.72">
    <path d="M118 420 C230 392 326 432 452 398 C560 368 684 388 790 336"/>
  </g>
</svg>
